Coordinates
version=1
nRows=16
nColumns=36
inDegrees=yes

Units are S.I. units (second, meters, Newtons, ...)
If the header above contains a line with 'inDegrees', this indicates whether rotational values are in degrees (yes) or radians (no).

endheader
time	pelvis_tilt	pelvis_list	pelvis_rotation	pelvis_tx	pelvis_ty	pelvis_tz	hip_flexion_r	hip_adduction_r	hip_rotation_r	knee_angle_r	knee_angle_r_beta	ankle_angle_r	subtalar_angle_r	mtp_angle_r	hip_flexion_l	hip_adduction_l	hip_rotation_l	knee_angle_l	knee_angle_l_beta	ankle_angle_l	subtalar_angle_l	mtp_angle_l	lumbar_extension	lumbar_bending	lumbar_rotation	arm_flex_r	arm_add_r	arm_rot_r	elbow_flex_r	pro_sup_r	arm_flex_l	arm_add_l	arm_rot_l	elbow_flex_l	pro_sup_l
      1.96666670	    -22.76125965	     -0.24728115	      4.05583611	      0.14029098	      0.56037730	     -0.07761503	     95.21031396	     -4.75039770	     11.30661660	    110.07599100	      1.92118847	     25.92814777	    -33.97400045	     -7.49999987	     91.13498425	     -4.00234466	      6.71026194	    113.26888913	      1.97691506	     36.25291964	    -13.18935540	     -7.49999987	    -44.82961383	     -0.26333226	     -1.25692653	     63.14820828	    -12.05135803	     12.11347999	     78.53300939	    100.84616344	     55.22395810	    -12.36861056	      4.13879373	    109.83409439	     78.14126986
      1.97083330	    -22.62250009	     -0.25556607	      3.89742011	      0.14329531	      0.56138422	     -0.07257274	     94.99777389	     -4.62436284	     11.02118620	    110.27827684	      1.92471902	     26.20021983	    -34.04849162	     -7.49999987	     90.89528173	     -4.03362927	      6.91024943	    113.53963205	      1.98164041	     36.26088888	    -13.56718295	     -7.49999987	    -44.89250623	     -0.56513792	     -1.29737704	     62.53022477	    -11.89037064	     12.28144404	     78.60714551	    100.85351629	     54.62471051	    -12.31686687	      4.18588708	    109.81931543	     78.13203706
      1.97500000	    -22.95607797	     -0.40794268	      3.72384638	      0.15232469	      0.56155176	     -0.07338260	     94.92693559	     -4.52560597	     10.63911457	    110.46770960	      1.92802525	     26.99345522	    -33.96324478	     -7.49999987	     90.99359155	     -3.97538138	      7.25478384	    113.85773654	      1.98719238	     35.61395149	    -14.81415945	     -7.49999987	    -44.28289543	     -0.57630655	     -1.17295634	     61.48902130	    -11.68143618	     12.23391174	     78.89081056	    100.83410205	     53.27351695	    -12.20076368	      3.94444642	    109.82677556	     78.01013991
      1.97916670	    -23.11928159	     -0.46182808	      3.66351052	      0.15013667	      0.56178257	     -0.07285845	     94.76471023	     -4.47927726	     10.37611387	    110.43888191	      1.92752211	     27.43111383	    -33.89578291	     -7.49999987	     91.00018378	     -3.90321782	      7.35671592	    113.98931531	      1.98948886	     35.35409534	    -15.42681881	     -7.49999987	    -44.00489571	     -0.80311263	     -1.11985454	     60.64736324	    -11.59616227	     12.09396448	     79.12921276	    100.79199772	     52.36363615	    -12.02326703	      3.93263915	    110.19455281	     77.89342177
      1.98333330	    -23.06764317	     -0.37610236	      3.23315002	      0.14685546	      0.56445683	     -0.07770688	     94.70301449	     -4.39260649	     10.38598013	    110.13138911	      1.92215535	     27.17552041	    -33.79680196	     -7.49999987	     91.04979048	     -3.74091262	      7.31751654	    114.20364364	      1.99322960	     34.79414098	    -16.20768262	     -7.49999987	    -44.03772208	     -1.11856774	     -0.95687028	     60.25811855	    -11.54360251	     12.06113725	     79.20718828	    100.71571234	     51.70562488	    -11.81259687	      3.57547298	    110.44046309	     77.66339300
      1.98750000	    -23.11285667	     -0.39520282	      3.20878566	      0.15060568	      0.56509363	     -0.07281525	     94.43893480	     -4.38052582	     10.43822536	    110.03969435	      1.92055497	     27.03909489	    -33.76877377	     -7.49999987	     90.89039597	     -3.86675631	      7.34099994	    114.11384437	      1.99166231	     34.59392178	    -16.28814642	     -7.49999987	    -43.94949064	     -1.25192386	     -0.93835418	     59.77617711	    -11.66734681	     11.98611406	     79.17189515	    100.68355771	     51.13989655	    -11.74570539	      3.62928743	    110.58463859	     77.59905294
      1.99166670	    -23.24674070	     -0.35197926	      3.15221305	      0.14775616	      0.56761680	     -0.06773064	     94.39145673	     -4.14562273	     10.18592482	    109.55293939	      1.91205950	     26.95971313	    -33.81308580	     -7.49999987	     91.02634774	     -3.89274164	      7.72138525	    113.81909751	      1.98651800	     33.54205775	    -17.12645143	     -7.49999987	    -43.89522466	     -1.71125351	     -0.86875299	     59.30555573	    -11.64543435	     11.24849419	     79.44129275	    100.27996828	     51.02255567	    -11.63159861	      3.76472387	    110.73770173	     76.72098483
      1.99583330	    -23.22586752	     -0.30105299	      2.96651584	      0.15896448	      0.56574763	     -0.07340398	     94.15957947	     -3.98413814	     10.20914807	    109.80632604	      1.91648193	     27.08600818	    -33.83971843	     -7.49999987	     90.75741804	     -4.14306818	      7.97415321	    114.11469734	      1.99167719	     33.13516703	    -17.15929050	     -7.49999987	    -43.75759763	     -1.79531723	     -0.82528164	     59.03215720	    -11.86956761	     11.19311368	     79.30925266	    100.26132200	     50.48580042	    -11.70779193	      3.78249091	    110.69764742	     76.67779127
      2.00000000	    -23.53227123	     -0.46347349	      2.85095682	      0.15940912	      0.56857145	     -0.07308961	     94.00060120	     -3.83228806	      9.90267162	    109.49722181	      1.91108704	     27.19563731	    -33.83277679	     -7.49999987	     90.86999241	     -4.52174782	      8.00795432	    113.99351744	      1.98956221	     32.50359234	    -17.86216112	     -7.49999987	    -43.11860068	     -1.75260014	     -0.65472120	     58.75832844	    -12.10145254	     11.23593962	     78.60341480	     98.02548676	     49.67073478	    -11.58219097	      3.84584656	    110.49143380	     73.53197072
      2.00416670	    -23.52278052	     -0.43471247	      2.55860344	      0.16518707	      0.56975080	     -0.08203546	     93.55795436	     -4.03750915	     10.07943886	    109.46496779	      1.91052410	     27.19561132	    -33.75472715	     -7.49999987	     90.50525499	     -4.64401529	      7.66497607	    114.34579889	      1.99571068	     32.45346718	    -18.15060035	     -7.49999987	    -42.86386553	     -1.65054019	     -0.53101481	     58.59052690	    -12.44323735	     11.14217033	     78.45556442	     98.02830256	     48.88336946	    -11.62159357	      3.80940979	    110.41737944	     73.49710963
      2.00833330	    -23.56924108	     -0.51491656	      2.26980661	      0.16493575	      0.56968009	     -0.08187192	     93.31609485	     -4.29717706	     10.03172879	    109.22558535	      1.90634609	     27.03594756	    -33.52770671	     -7.49999987	     90.33550938	     -4.69104968	      7.42510746	    114.67161341	      2.00139721	     31.88921869	    -19.51729529	     -7.49999987	    -42.41864042	     -1.31211593	     -0.73832114	     59.01514009	    -12.46882622	     12.13458159	     77.12484005	     95.85501191	     47.76668318	    -11.54367259	      2.75858264	    110.61961171	     71.02226506
      2.01250000	    -23.21241094	     -0.55724013	      1.86150648	      0.16731947	      0.57457376	     -0.08530663	     92.35081697	     -4.54999018	      9.98563808	    108.66203366	      1.89651026	     26.76364152	    -33.43481638	     -7.49999987	     89.49822997	     -4.85723100	      7.12047898	    114.52570504	      1.99885063	     31.86862142	    -19.97334123	     -7.49999987	    -42.43507340	     -1.32725555	      0.08179786	     58.98296860	    -13.77207417	     12.53748609	     76.80733482	     88.47085164	     47.62872046	    -10.72230219	      3.52714576	    109.64178717	     69.05672281
      2.01666670	    -23.41454152	     -0.65507398	      1.86244784	      0.16747213	      0.57759083	     -0.08514761	     91.89698977	     -4.94154860	      9.89693238	    108.06256964	      1.88604764	     26.84401095	    -33.26519778	     -7.49999987	     89.42547596	     -4.80185218	      6.81446948	    114.33232534	      1.99547552	     31.81866051	    -20.33644414	     -7.49999987	    -42.18352606	     -0.90927587	     -0.40549415	     58.93957204	    -13.75928442	     12.44845969	     77.16197463	     97.09552296	     46.65068519	    -11.03822735	      2.64718808	    110.69344758	     69.29799459
      2.02083330	    -23.31766059	     -0.71183703	      1.86762476	      0.16260736	      0.57794297	     -0.08005959	     91.78837709	     -5.01714684	      9.63747220	    107.82734637	      1.88194222	     26.78675730	    -33.18443371	     -7.49999987	     89.33589638	     -5.05191745	      6.87902941	    114.06790640	      1.99086054	     31.76569032	    -20.40133670	     -7.49999987	    -42.05845017	     -1.04091726	     -0.53352576	     58.78825570	    -14.07244826	     12.38739988	     77.13049033	     97.08972719	     46.51187990	    -11.16530531	      2.61718214	    110.81944611	     69.29500485
      2.02500000	    -23.12710440	     -0.93967180	      1.78102143	      0.16454797	      0.58478085	     -0.07961925	     91.17674942	     -4.81567755	      9.05137971	    107.22619087	      1.87145008	     26.75011380	    -33.21625032	     -7.49999987	     88.93298150	     -5.45138467	      7.11039790	    113.45688691	      1.98019624	     30.72048624	    -20.66304638	     -7.49999987	    -42.26112270	     -1.06326377	     -0.31333442	     58.73023251	    -14.83526263	     12.36032910	     77.43176368	     97.02392746	     46.59537734	    -11.36608540	      2.78818800	    111.72756736	     69.27615169
      2.02916670	    -22.94167451	     -0.87455633	      1.54496874	      0.16414453	      0.58846972	     -0.07999547	     90.60984036	     -4.52161434	      8.78791537	    106.47721824	      1.85837804	     26.58563135	    -33.27412943	     -7.49999987	     88.28066192	     -5.60003981	      7.02622451	    112.87316089	      1.97000829	     30.02412615	    -21.25659643	     -7.49999987	    -42.61161457	     -1.44528347	     -0.00159874	     58.92789924	    -15.91069141	     12.89998491	     78.40657201	     92.38888924	     47.17898066	    -11.55804382	      3.04642306	    112.22138684	     68.04074887
